<?xml version="1.0" encoding="UTF-8"?>
<svg version="1.1" xmlns="http://www.w3.org/2000/svg" width="512" height="512">
<path d="M0 0 C1.75065214 -0.00576172 1.75065214 -0.00576172 3.53667098 -0.01163983 C4.81982151 -0.01077335 6.10297204 -0.00990687 7.42500591 -0.00901413 C8.80115345 -0.011598 10.17730024 -0.01461122 11.55344599 -0.01801753 C15.33902373 -0.02608813 19.1245825 -0.02787713 22.91016781 -0.028615 C26.99139262 -0.03046543 31.07260759 -0.03801267 35.15382671 -0.04475021 C44.07939368 -0.05833407 53.00495616 -0.06435822 61.93053174 -0.06876087 C67.50265203 -0.07152297 73.07477057 -0.07576024 78.64688969 -0.08026505 C94.0717845 -0.09245733 109.49667792 -0.10275702 124.92157745 -0.10614014 C126.40249856 -0.10646949 126.40249856 -0.10646949 127.91333727 -0.10680549 C128.90298928 -0.10702377 129.8926413 -0.10724204 130.91228276 -0.10746694 C132.91771909 -0.1079104 134.92315541 -0.10835697 136.92859173 -0.10880661 C137.92335888 -0.10902804 138.91812604 -0.10924947 139.94303765 -0.10947761 C156.06559225 -0.11342651 172.18810168 -0.13088352 188.31063882 -0.15416613 C204.85983267 -0.17787219 221.40900384 -0.19034163 237.95821494 -0.19150805 C247.25145915 -0.19242519 256.5446445 -0.1981872 265.83787251 -0.21632767 C273.75040782 -0.23171852 281.66286607 -0.23685509 289.5754135 -0.22858956 C293.61272282 -0.22467957 297.64987689 -0.22562963 301.68716717 -0.23964691 C305.38399293 -0.25236481 309.08054645 -0.25120706 312.77737173 -0.2390562 C314.74639831 -0.23616755 316.7154295 -0.24805092 318.68441898 -0.26047826 C326.52066806 -0.21652679 331.88868598 0.18650819 337.99866009 5.44392776 C342.71932413 10.9301049 345.45654241 15.18182119 345.41351223 22.43413162 C345.41096959 23.29219375 345.40842695 24.15025587 345.40580726 25.03431988 C345.39791781 25.97241529 345.39002836 26.91051069 345.38189983 27.87703323 C345.37766546 28.87749963 345.37343108 29.87796602 345.36906838 30.90874958 C345.35919442 33.10514289 345.34698985 35.30152663 345.3327837 37.49789619 C345.30161969 42.32513522 345.28157412 47.15240518 345.26052904 51.97969723 C345.24900486 54.58134956 345.23686378 57.18299923 345.22415304 59.78464603 C345.17748414 69.3684169 345.1523861 78.95209516 345.14007854 88.53596878 C345.13915647 89.2305595 345.13823439 89.92515023 345.13728437 90.64078915 C345.12884623 97.09406613 345.12178247 103.54734437 345.11542177 110.0006237 C345.11097125 114.42687591 345.10572613 118.8531266 345.09973431 123.27937698 C345.09825692 124.38196155 345.09825692 124.38196155 345.09674969 125.50682056 C345.07957205 137.35723386 345.01953087 149.20706944 344.94411466 161.0572381 C344.86752584 173.26175527 344.84144292 185.4656797 344.85964704 197.67042542 C344.8683831 204.50744194 344.85455044 211.34278396 344.78203869 218.17946243 C343.6392615 257.10318698 343.6392615 257.10318698 357.67962933 292.52547073 C360.42691815 296.91356858 362.52847005 301.60412893 364.71741009 306.28767776 C365.56051746 308.01224505 366.40700551 309.73516809 367.25842571 311.45564651 C374.42979221 325.99246251 381.51148861 340.55281712 388.25793743 355.29231644 C394.35121968 368.52521206 400.81456719 381.58039854 407.24280071 394.65291214 C407.68723522 395.55805054 408.13166973 396.46318893 408.58957195 397.39575577 C409.425193 399.09701136 410.26235 400.79751376 411.10135174 402.49710464 C419.20057989 418.98573431 419.20057989 418.98573431 416.58459759 427.49470901 C412.96835217 436.24131887 407.78581389 441.14802308 399.31116009 445.13142776 C395.69380268 446.33721357 392.39222328 446.27316131 388.62699223 446.26564884 C387.83269143 446.26800107 387.03839063 446.2703533 386.22002012 446.27277681 C383.53598024 446.27947838 380.85198865 446.27900824 378.16794109 446.27859879 C376.23310924 446.28189669 374.29827807 446.2856221 372.36344779 446.28974026 C367.02886063 446.29977675 361.69428473 446.30347971 356.35968947 446.30612957 C350.61309024 446.31002775 344.86649996 446.31960643 339.11990643 446.32834244 C325.23297002 446.34812074 311.34603286 446.35817484 297.45908588 446.36707023 C290.92320072 446.37145094 284.38731637 446.37681831 277.85143185 446.3820591 C256.13092418 446.39907283 234.41041746 446.41359254 212.68990421 446.42080784 C211.28494677 446.4212826 209.87998933 446.42175849 208.47503189 446.4222355 C207.42992665 446.42259006 207.42992665 446.42259006 206.36370817 446.42295179 C202.83365959 446.424153 199.30361101 446.42536844 195.77356243 446.42659378 C195.07301186 446.42683393 194.37246128 446.42707408 193.6506819 446.42732151 C170.93776362 446.43521423 148.22489757 446.45864497 125.51200209 446.49114972 C101.50181061 446.52544835 77.49165101 446.54515789 53.48143446 446.54845208 C40.39196264 446.55061912 27.30256757 446.55939609 14.21311855 446.58491325 C3.06683048 446.60659182 -8.07936222 446.61468467 -19.22566898 446.60494647 C-24.91382783 446.60039354 -30.60178976 446.60234584 -36.28992176 446.62170792 C-41.49747576 446.63928121 -46.70468834 446.6383892 -51.91224568 446.62281062 C-53.79588788 446.62042568 -55.67955337 446.62480384 -57.5631599 446.63663927 C-68.52546075 446.70125155 -76.65486536 446.19275679 -85.93883991 439.94392776 C-91.04075147 434.72606367 -94.31946104 428.51344716 -95.11462116 421.23299026 C-95.02515678 414.6126263 -91.84304567 409.27807913 -88.87633991 403.50642776 C-88.27457475 402.30238454 -87.67475143 401.09736904 -87.07677937 399.89143753 C-85.86385286 397.4491796 -84.64304822 395.01114276 -83.41540241 392.57625198 C-81.0064119 387.76985264 -78.68560884 382.92381622 -76.37633991 378.06892776 C-75.93830036 377.15353226 -75.50026081 376.23813675 -75.04894733 375.29500198 C-72.37992887 369.71136434 -69.73883792 364.1151194 -67.11462116 358.51033401 C-65.8063231 355.71722664 -64.49775577 352.92424568 -63.18883991 350.13142776 C-62.85641285 349.42203049 -62.52398579 348.71263321 -62.18148518 347.98173904 C-55.49150995 333.71940236 -48.61372747 319.55053009 -41.63446999 305.42757988 C-40.87900592 303.87750737 -40.13701662 302.32074955 -39.41255951 300.75594521 C-37.40354255 296.44667204 -35.28027214 292.43295618 -32.64362812 288.47386551 C-19.26861054 266.74948051 -22.08506169 241.06722277 -22.3481238 216.50123688 C-22.41882115 209.64338972 -22.41683529 202.78606397 -22.41096384 195.92792423 C-22.40207247 183.69333582 -22.44393524 171.45950681 -22.5211153 159.22517776 C-22.59568506 147.38046154 -22.6532842 135.53591726 -22.68322468 123.69099808 C-22.68508657 122.95859021 -22.68694847 122.22618235 -22.68886679 121.47158031 C-22.70871248 113.47021545 -22.72367409 105.46884776 -22.73487663 97.46746635 C-22.73588033 96.76406148 -22.73688402 96.06065661 -22.73791813 95.33593643 C-22.74614907 89.54871222 -22.74614907 89.54871222 -22.74944169 86.90038271 C-22.7598853 78.69368886 -22.7850983 70.48734415 -22.83725197 62.28080393 C-22.87360069 56.53876626 -22.89658266 50.79674108 -22.91504383 45.05462074 C-22.92540857 42.70359536 -22.94103641 40.35258637 -22.96233273 38.0016346 C-22.99091089 34.79148401 -23.00100604 31.58177025 -23.00681782 28.37150955 C-23.01985083 27.44370127 -23.03288384 26.51589299 -23.0463118 25.55996931 C-23.02970995 18.55752248 -22.03937189 12.85309637 -17.31383991 7.38142776 C-16.44758991 6.63892776 -15.58133991 5.89642776 -14.68883991 5.13142776 C-13.42040241 4.01767776 -13.42040241 4.01767776 -12.12633991 2.88142776 C-8.18416372 0.05114742 -4.77709027 0.00589977 0 0 Z " fill="#54BFEA" transform="translate(94.68883991241455,32.86857223510742)"/>
<path d="M0 0 C122.1 0 244.2 0 370 0 C374.29 9.24 378.58 18.48 383 28 C386.05473879 34.30370952 389.11136552 40.60273247 392.21020508 46.88427734 C398.95808939 60.5690838 405.59638399 74.28668301 411.94677734 88.16088867 C418.04005959 101.39378429 424.50340711 114.44897078 430.93164062 127.52148438 C431.37607513 128.42662277 431.82050964 129.33176117 432.27841187 130.264328 C433.11403291 131.9655836 433.95118991 133.66608599 434.79019165 135.36567688 C442.88941981 151.85430654 442.88941981 151.85430654 440.2734375 160.36328125 C436.65719208 169.10989111 431.4746538 174.01659531 423 178 C419.38264259 179.2057858 416.08106319 179.14173354 412.31583214 179.13422108 C411.52153134 179.13657331 410.72723055 179.13892554 409.90886003 179.14134905 C407.22482015 179.14805061 404.54082856 179.14758048 401.85678101 179.14717102 C399.92194915 179.15046893 397.98711798 179.15419434 396.0522877 179.1583125 C390.71770055 179.16834898 385.38312465 179.17205194 380.04852939 179.17470181 C374.30193015 179.17859999 368.55533987 179.18817866 362.80874634 179.19691467 C348.92180993 179.21669298 335.03487277 179.22674708 321.14792579 179.23564246 C314.61204063 179.24002317 308.07615628 179.24539055 301.54027176 179.25063133 C279.81976409 179.26764507 258.09925738 179.28216477 236.37874413 179.28938007 C234.97378668 179.28985483 233.56882924 179.29033072 232.1638718 179.29080774 C231.11876656 179.2911623 231.11876656 179.2911623 230.05254808 179.29152403 C226.5224995 179.29272523 222.99245092 179.29394068 219.46240234 179.29516602 C218.76185177 179.29540617 218.06130119 179.29564632 217.33952181 179.29589374 C194.62660353 179.30378646 171.91373748 179.3272172 149.20084201 179.35972196 C125.19065052 179.39402059 101.18049092 179.41373012 77.17027438 179.41702431 C64.08080256 179.41919135 50.99140748 179.42796833 37.90195847 179.45348549 C26.75567039 179.47516405 15.6094777 179.4832569 4.46317093 179.47351871 C-1.22498792 179.46896577 -6.91294985 179.47091807 -12.60108185 179.49028015 C-17.80863585 179.50785345 -23.01584843 179.50696144 -28.22340576 179.49138286 C-30.10704797 179.48899792 -31.99071345 179.49337607 -33.87431999 179.50521151 C-44.83662084 179.56982378 -52.96602545 179.06132903 -62.25 172.8125 C-67.35191156 167.59463591 -70.63062113 161.3820194 -71.42578125 154.1015625 C-71.33631687 147.48119854 -68.15420575 142.14665137 -65.1875 136.375 C-64.58573484 135.17095677 -63.98591152 133.96594128 -63.38793945 132.76000977 C-62.17501294 130.31775184 -60.95420831 127.879715 -59.7265625 125.44482422 C-57.31757198 120.63842487 -54.99676892 115.79238846 -52.6875 110.9375 C-52.24946045 110.02210449 -51.8114209 109.10670898 -51.36010742 108.16357422 C-48.69108895 102.57993657 -46.04999801 96.98369164 -43.42578125 91.37890625 C-42.11748319 88.58579887 -40.80891586 85.79281792 -39.5 83 C-39.16757294 82.29060272 -38.83514587 81.58120544 -38.49264526 80.85031128 C-32.13880988 67.30459006 -25.60783122 53.84832643 -18.99804688 40.42578125 C-12.43283466 27.04262774 -6.25373035 13.54974909 0 0 Z " fill="#F1F2F2" transform="translate(71,300)"/>
<path d="M0 0 C1.75065214 -0.00576172 1.75065214 -0.00576172 3.53667098 -0.01163983 C4.81982151 -0.01077335 6.10297204 -0.00990687 7.42500591 -0.00901413 C8.80115345 -0.011598 10.17730024 -0.01461122 11.55344599 -0.01801753 C15.33902373 -0.02608813 19.1245825 -0.02787713 22.91016781 -0.028615 C26.99139262 -0.03046543 31.07260759 -0.03801267 35.15382671 -0.04475021 C44.07939368 -0.05833407 53.00495616 -0.06435822 61.93053174 -0.06876087 C67.50265203 -0.07152297 73.07477057 -0.07576024 78.64688969 -0.08026505 C94.0717845 -0.09245733 109.49667792 -0.10275702 124.92157745 -0.10614014 C126.40249856 -0.10646949 126.40249856 -0.10646949 127.91333727 -0.10680549 C128.90298928 -0.10702377 129.8926413 -0.10724204 130.91228276 -0.10746694 C132.91771909 -0.1079104 134.92315541 -0.10835697 136.92859173 -0.10880661 C137.92335888 -0.10902804 138.91812604 -0.10924947 139.94303765 -0.10947761 C156.06559225 -0.11342651 172.18810168 -0.13088352 188.31063882 -0.15416613 C204.85983267 -0.17787219 221.40900384 -0.19034163 237.95821494 -0.19150805 C247.25145915 -0.19242519 256.5446445 -0.1981872 265.83787251 -0.21632767 C273.75040782 -0.23171852 281.66286607 -0.23685509 289.5754135 -0.22858956 C293.61272282 -0.22467957 297.64987689 -0.22562963 301.68716717 -0.23964691 C305.38399293 -0.25236481 309.08054645 -0.25120706 312.77737173 -0.2390562 C314.74639831 -0.23616755 316.7154295 -0.24805092 318.68441898 -0.26047826 C326.52066806 -0.21652679 331.88868598 0.18650819 337.99866009 5.44392776 C342.75424727 10.97069125 345.43787624 15.21971214 345.43420792 22.51234436 C345.43619879 23.38794762 345.43818966 24.26355087 345.44024086 25.16568756 C345.4373282 26.12260876 345.43441553 27.07952995 345.4314146 28.06544876 C345.43227062 29.08320892 345.43312664 30.10096909 345.4340086 31.14957047 C345.43566765 34.58071502 345.43013385 38.01181109 345.42468548 41.4429512 C345.42437925 43.93650308 345.42451246 46.43005504 345.42505074 48.92360687 C345.42525394 54.93429796 345.42096339 60.94497018 345.41454941 66.95565654 C345.40735287 73.90764016 345.40655485 80.85961629 345.40576458 87.81160355 C345.40051302 106.16821399 345.38655192 124.5248211 345.37366009 142.88142776 C345.35303509 183.88392776 345.33241009 224.88642776 345.31116009 267.13142776 C223.87116009 267.13142776 102.43116009 267.13142776 -22.68883991 267.13142776 C-22.75071491 226.21142776 -22.81258991 185.29142776 -22.87633991 143.13142776 C-22.90365192 130.20470901 -22.93096394 117.27799026 -22.95910358 103.95955276 C-22.97265339 88.19002151 -22.97265339 88.19002151 -22.97517109 80.81062698 C-22.97796914 75.65011217 -22.98897557 70.4896679 -23.0055666 65.32918167 C-23.0266948 58.74770529 -23.03231528 52.16633683 -23.02805674 45.58481979 C-23.02894732 43.16876092 -23.03490236 40.75269738 -23.0464853 38.33666611 C-23.06140533 35.07309627 -23.05781065 31.81004864 -23.04960346 28.54646683 C-23.05834146 27.60119629 -23.06707945 26.65592575 -23.07608223 25.68201065 C-23.02846634 18.63788963 -22.0695427 12.88803099 -17.31383991 7.38142776 C-16.44758991 6.63892776 -15.58133991 5.89642776 -14.68883991 5.13142776 C-13.42040241 4.01767776 -13.42040241 4.01767776 -12.12633991 2.88142776 C-8.18416372 0.05114742 -4.77709027 0.00589977 0 0 Z M0.31116009 22.13142776 C0.31116009 95.72142776 0.31116009 169.31142776 0.31116009 245.13142776 C106.57116009 245.13142776 212.83116009 245.13142776 322.31116009 245.13142776 C322.31116009 171.54142776 322.31116009 97.95142776 322.31116009 22.13142776 C216.05116009 22.13142776 109.79116009 22.13142776 0.31116009 22.13142776 Z " fill="#415A6B" transform="translate(94.68883991241455,32.86857223510742)"/>
<path d="M0 0 C168.96 0 337.92 0 512 0 C512 8.27288078 510.33527731 12.53044514 505.8125 19.25 C499.26219371 25.65474393 492.34193496 28.15223015 483.31583214 28.13422108 C482.52153134 28.13657331 481.72723055 28.13892554 480.90886003 28.14134905 C478.22482015 28.14805061 475.54082856 28.14758048 472.85678101 28.14717102 C470.92194915 28.15046893 468.98711798 28.15419434 467.0522877 28.1583125 C461.71770055 28.16834898 456.38312465 28.17205194 451.04852939 28.17470181 C445.30193015 28.17859999 439.55533987 28.18817866 433.80874634 28.19691467 C419.92180993 28.21669298 406.03487277 28.22674708 392.14792579 28.23564246 C385.61204063 28.24002317 379.07615628 28.24539055 372.54027176 28.25063133 C350.81976409 28.26764507 329.09925738 28.28216477 307.37874413 28.28938007 C305.97378668 28.28985483 304.56882924 28.29033072 303.1638718 28.29080774 C302.11876656 28.2911623 302.11876656 28.2911623 301.05254808 28.29152403 C297.5224995 28.29272523 293.99245092 28.29394068 290.46240234 28.29516602 C289.76185177 28.29540617 289.06130119 28.29564632 288.33952181 28.29589374 C265.62660353 28.30378646 242.91373748 28.3272172 220.20084201 28.35972196 C196.19065052 28.39402059 172.18049092 28.41373012 148.17027438 28.41702431 C135.08080256 28.41919135 121.99140748 28.42796833 108.90195847 28.45348549 C97.75567039 28.47516405 86.6094777 28.4832569 75.46317093 28.47351871 C69.77501208 28.46896577 64.08705015 28.47091807 58.39891815 28.49028015 C53.19136415 28.50785345 47.98415157 28.50696144 42.77659424 28.49138286 C40.89295203 28.48899792 39.00928655 28.49337607 37.12568001 28.50521151 C26.16337916 28.56982378 18.03397455 28.06132903 8.75 21.8125 C2.45385008 15.37325576 0 8.95709351 0 0 Z " fill="#CED6E0" transform="translate(0,451)"/>
<path d="M0 0 C1.24132187 0.00222061 2.48264374 0.00444122 3.76158142 0.00672913 C4.44447739 0.0065831 5.12737335 0.00643707 5.83096313 0.00628662 C8.09815092 0.00698575 10.36525752 0.01477811 12.63243103 0.02259827 C14.20041865 0.02446245 15.76840685 0.02588635 17.33639526 0.02688599 C21.47103981 0.03071117 25.60564944 0.04054146 29.74028015 0.05158997 C33.95627876 0.06180407 38.172283 0.0663836 42.38829041 0.07142639 C50.66630125 0.08216373 58.94428368 0.09924015 67.22227478 0.12025452 C73.2060773 11.42096861 79.12608943 22.7466986 84.84727478 34.18275452 C85.47611809 35.42822901 86.10502439 36.67367169 86.73399353 37.91908264 C87.32051697 39.09019592 87.90704041 40.2613092 88.51133728 41.46791077 C89.03421326 42.50955383 89.55708923 43.5511969 90.09580994 44.62440491 C91.22227478 47.12025452 91.22227478 47.12025452 91.22227478 49.12025452 C52.28227478 49.12025452 13.34227478 49.12025452 -26.77772522 49.12025452 C-25.50095853 45.28995445 -24.40213947 42.11929017 -22.6388092 38.59950256 C-22.01322365 37.34371651 -22.01322365 37.34371651 -21.375 36.06256104 C-20.70616539 34.73567009 -20.70616539 34.73567009 -20.02381897 33.38197327 C-19.56290359 32.46060074 -19.10198822 31.53922821 -18.62710571 30.5899353 C-17.6565043 28.65174348 -16.68396683 26.71452013 -15.70960999 24.7782135 C-14.21269943 21.80273388 -12.72228326 18.82406899 -11.23280334 15.84486389 C-10.28852048 13.96121051 -9.34387189 12.07774042 -8.39881897 10.19447327 C-7.950905 9.29975815 -7.50299103 8.40504303 -7.04150391 7.48321533 C-6.62759903 6.66178543 -6.21369415 5.84035553 -5.7872467 4.99403381 C-5.42243698 4.26822617 -5.05762726 3.54241852 -4.6817627 2.7946167 C-3.23999712 0.12433165 -3.23540757 0.1400687 0 0 Z " fill="#CED6E0" transform="translate(223.77772521972656,384.87974548339844)"/>
<path d="M0 0 C45.54 0 91.08 0 138 0 C139 6 139 6 139 14 C92.47 14 45.94 14 -2 14 C-1.47942079 9.31478714 -0.92450033 4.62250164 0 0 Z " fill="#475F6F" transform="translate(150,359)"/>
<path d="M0 0 C8.25 0 16.5 0 25 0 C26.71609318 5.14827954 28.22445418 10.26423858 29.625 15.5 C29.96917969 16.74330078 29.96917969 16.74330078 30.3203125 18.01171875 C30.536875 18.82253906 30.7534375 19.63335937 30.9765625 20.46875 C31.17330566 21.19513672 31.37004883 21.92152344 31.57275391 22.66992188 C32 25 32 25 32 31 C23.09 31 14.18 31 5 31 C3.625 23.625 3.625 23.625 3.17700195 21.21801758 C2.29463826 16.50158035 1.35623037 11.80128212 0.33203125 7.11328125 C0 5 0 5 0 0 Z " fill="#445D6D" transform="translate(332,342)"/>
<path d="M0 0 C2.44241333 -0.36076355 2.44241333 -0.36076355 5.55126953 -0.34057617 C6.71232208 -0.34034958 7.87337463 -0.34012299 9.0696106 -0.33988953 C10.32796722 -0.32440567 11.58632385 -0.30892181 12.8828125 -0.29296875 C14.16735321 -0.28872391 15.45189392 -0.28447906 16.77536011 -0.28010559 C20.19172641 -0.2686468 23.60771056 -0.23917143 27.02392578 -0.20599365 C30.50938751 -0.17531462 33.99491094 -0.16160494 37.48046875 -0.14648438 C44.32046957 -0.11430221 51.16021644 -0.06309376 58 0 C57.69106068 1.6256807 57.3777305 3.25052748 57.0625 4.875 C56.88847656 5.77992188 56.71445313 6.68484375 56.53515625 7.6171875 C56 10 56 10 55 12 C35.2 12 15.4 12 -5 12 C-2 3 -2 3 0 0 Z " fill="#465E6F" transform="translate(92,325)"/>
<path d="M0 0 C18.81 0 37.62 0 57 0 C57.66 3.63 58.32 7.26 59 11 C39.86 11 20.72 11 1 11 C0.67 7.37 0.34 3.74 0 0 Z " fill="#486070" transform="translate(293,310)"/>
<path d="M0 0 C8.91 0 17.82 0 27 0 C31 12 31 12 31 14 C21.76 14 12.52 14 3 14 C0 3 0 3 0 0 Z " fill="#496171" transform="translate(371,359)"/>
<path d="M0 0 C8.91 0 17.82 0 27 0 C25 11 25 11 24 14 C14.76 14 5.52 14 -4 14 C-1 2 -1 2 0 0 Z " fill="#496171" transform="translate(114,359)"/>
<path d="M0 0 C4.31254083 -0.02682299 8.62491707 -0.04675244 12.9375 -0.0625 C14.16919922 -0.07087891 15.40089844 -0.07925781 16.66992188 -0.08789062 C17.83974609 -0.09111328 19.00957031 -0.09433594 20.21484375 -0.09765625 C21.84087524 -0.10551147 21.84087524 -0.10551147 23.49975586 -0.11352539 C26 0 26 0 27 1 C27.33 5.29 27.66 9.58 28 14 C18.76 14 9.52 14 0 14 C0 9.38 0 4.76 0 0 Z " fill="#486071" transform="translate(298,359)"/>
<path d="M0 0 C8.58 0 17.16 0 26 0 C32 11.75 32 11.75 32 14 C23.09 14 14.18 14 5 14 C1 5 1 5 0 0 Z " fill="#486070" transform="translate(408,359)"/>
<path d="M0 0 C1.07354736 0.02618408 2.14709473 0.05236816 3.25317383 0.0793457 C4.41655273 0.09545898 5.57993164 0.11157227 6.77856445 0.12817383 C7.99350586 0.17006836 9.20844727 0.21196289 10.46020508 0.25512695 C12.30001953 0.28896484 12.30001953 0.28896484 14.17700195 0.32348633 C17.21012067 0.38249642 20.2408073 0.46478103 23.27270508 0.56762695 C22.57799317 5.95164421 20.67004254 9.17361766 18.27270508 14.56762695 C9.36270508 14.56762695 0.45270508 14.56762695 -8.72729492 14.56762695 C-4.16002546 0.86581857 -4.16002546 0.86581857 0 0 Z " fill="#486070" transform="translate(80.727294921875,358.432373046875)"/>
<path d="M0 0 C8.58 0 17.16 0 26 0 C27.32 4.62 28.64 9.24 30 14 C21.09 14 12.18 14 3 14 C0 3 0 3 0 0 Z " fill="#486070" transform="translate(367,341)"/>
<path d="M0 0 C8.58 0 17.16 0 26 0 C24 12 24 12 23 14 C14.09 14 5.18 14 -4 14 C-2.68 9.38 -1.36 4.76 0 0 Z " fill="#486070" transform="translate(119,341)"/>
<path d="M0 0 C8.91 0 17.82 0 27 0 C27 4.62 27 9.24 27 14 C18.42 14 9.84 14 1 14 C0.67 9.38 0.34 4.76 0 0 Z " fill="#475F6F" transform="translate(260,341)"/>
<path d="M0 0 C8.91 0 17.82 0 27 0 C26.67 4.62 26.34 9.24 26 14 C17.42 14 8.84 14 0 14 C0 9.38 0 4.76 0 0 Z " fill="#475F6F" transform="translate(225,341)"/>
<path d="M0 0 C8.58 0 17.16 0 26 0 C31 12 31 12 31 14 C22.09 14 13.18 14 4 14 C0 2 0 2 0 0 Z " fill="#475F70" transform="translate(402,341)"/>
<path d="M0 0 C8.58 0 17.16 0 26 0 C23 11 23 11 22 14 C13.09 14 4.18 14 -5 14 C-3.43297876 9.29893629 -1.84037311 4.60093277 0 0 Z " fill="#475F70" transform="translate(84,341)"/>
<path d="M0 0 C8.58 0 17.16 0 26 0 C26.495 6.93 26.495 6.93 27 14 C18.42 14 9.84 14 1 14 C0 9 0 9 0 0 Z " fill="#475F6F" transform="translate(296,341)"/>
<path d="M0 0 C8.58 0 17.16 0 26 0 C26 9 26 9 25 14 C16.42 14 7.84 14 -1 14 C-0.67 9.38 -0.34 4.76 0 0 Z " fill="#475F6F" transform="translate(190,341)"/>
<path d="M0 0 C8.25 0 16.5 0 25 0 C24 10 24 10 23 14 C14.42 14 5.84 14 -3 14 C-2 6 -2 6 0 0 Z " fill="#465E6F" transform="translate(155,341)"/>
<path d="M0 0 C8.25 0 16.5 0 25 0 C28 8 28 8 28 12 C19.75 12 11.5 12 3 12 C0 3 0 3 0 0 Z " fill="#475F70" transform="translate(362,325)"/>
<path d="M0 0 C8.25 0 16.5 0 25 0 C27 9 27 9 27 12 C18.42 12 9.84 12 1 12 C0.67 8.04 0.34 4.08 0 0 Z " fill="#496171" transform="translate(294,325)"/>
<path d="M0 0 C8.25 0 16.5 0 25 0 C24.67 3.96 24.34 7.92 24 12 C15.42 12 6.84 12 -2 12 C-1 2 -1 2 0 0 Z " fill="#496171" transform="translate(193,325)"/>
<path d="M0 0 C8.25 0 16.5 0 25 0 C25.33 3.96 25.66 7.92 26 12 C17.42 12 8.84 12 0 12 C0 8.04 0 4.08 0 0 Z " fill="#486070" transform="translate(260,325)"/>
<path d="M0 0 C8.25 0 16.5 0 25 0 C25 3.96 25 7.92 25 12 C16.42 12 7.84 12 -1 12 C-0.67 8.04 -0.34 4.08 0 0 Z " fill="#486070" transform="translate(227,325)"/>
<path d="M0 0 C7.92 0 15.84 0 24 0 C26 5 26 5 27 12 C18.42 12 9.84 12 1 12 C0.67 8.04 0.34 4.08 0 0 Z " fill="#475F70" transform="translate(329,325)"/>
<path d="M0 0 C1.00023193 0.00523682 2.00046387 0.01047363 3.03100586 0.01586914 C4.1105957 0.0190918 5.19018555 0.02231445 6.30249023 0.02563477 C8.00695312 0.03820312 8.00695312 0.03820312 9.74584961 0.05102539 C11.45611328 0.05779297 11.45611328 0.05779297 13.20092773 0.06469727 C16.02842379 0.07652779 18.85589306 0.09446389 21.68334961 0.11352539 C21.35334961 4.07352539 21.02334961 8.03352539 20.68334961 12.11352539 C12.10334961 12.11352539 3.52334961 12.11352539 -5.31665039 12.11352539 C-3.14218761 0.15398011 -3.14218761 0.15398011 0 0 Z " fill="#475F70" transform="translate(161.316650390625,324.886474609375)"/>
<path d="M0 0 C7.92 0 15.84 0 24 0 C29 10 29 10 29 12 C20.75 12 12.5 12 4 12 C0 2 0 2 0 0 Z " fill="#475F6F" transform="translate(396,325)"/>
<path d="M0 0 C7.92 0 15.84 0 24 0 C28 9 28 9 28 11 C19.75 11 11.5 11 3 11 C0 3 0 3 0 0 Z " fill="#496071" transform="translate(391,310)"/>
<path d="M0 0 C7.92 0 15.84 0 24 0 C24.33 3.63 24.66 7.26 25 11 C16.75 11 8.5 11 0 11 C0 7.37 0 3.74 0 0 Z " fill="#4B6272" transform="translate(260,310)"/>
<path d="M0 0 C7.92 0 15.84 0 24 0 C24 3.63 24 7.26 24 11 C15.75 11 7.5 11 -1 11 C-0.67 7.37 -0.34 3.74 0 0 Z " fill="#4B6272" transform="translate(228,310)"/>
<path d="M0 0 C7.92 0 15.84 0 24 0 C23 5 23 5 21 11 C12.75 11 4.5 11 -4 11 C-1 2 -1 2 0 0 Z " fill="#496071" transform="translate(97,310)"/>
<path d="M0 0 C7.92 0 15.84 0 24 0 C27 9 27 9 27 11 C18.75 11 10.5 11 2 11 C1.34 7.37 0.68 3.74 0 0 Z " fill="#4A6272" transform="translate(358,310)"/>
<path d="M0 0 C7.92 0 15.84 0 24 0 C23.67 3.63 23.34 7.26 23 11 C14.75 11 6.5 11 -2 11 C-1.34 7.37 -0.68 3.74 0 0 Z " fill="#4A6272" transform="translate(195,310)"/>
<path d="M0 0 C7.92 0 15.84 0 24 0 C23.34 3.63 22.68 7.26 22 11 C13.75 11 5.5 11 -3 11 C-1 2 -1 2 0 0 Z " fill="#4A6272" transform="translate(130,310)"/>
<path d="M0 0 C7.92 0 15.84 0 24 0 C23.34 3.63 22.68 7.26 22 11 C13.75 11 5.5 11 -3 11 C-2.01 7.37 -1.02 3.74 0 0 Z " fill="#4A6171" transform="translate(163,310)"/>
</svg>
